<svg width="28" height="27" viewBox="0 0 28 27" fill="none" xmlns="http://www.w3.org/2000/svg">
<path d="M6.38558 14.3224H2.61195H2.30865C1.19328 14.3224 0.647748 12.9623 1.45398 12.1915L12.6915 1.44876C13.1696 0.991689 13.9227 0.991688 14.4008 1.44876L25.6383 12.1915C26.4446 12.9623 25.899 14.3224 24.7837 14.3224H21.3577M17.4519 25.3683H21.5305C22.2136 25.3683 22.7673 24.8145 22.7673 24.1315V18.5657M17.4519 25.3683V16.8038C17.4519 16.1208 16.8982 15.567 16.2151 15.567H10.8772C10.1941 15.567 9.64039 16.1208 9.64039 16.8038V25.3683M17.4519 25.3683H9.64039M9.64039 25.3683H5.93382C5.25074 25.3683 4.69699 24.8145 4.69699 24.1315V18.5657" stroke="white" stroke-width="1.96428" stroke-linecap="round" stroke-linejoin="round"/>
</svg>