<svg width="161" height="148" fill="none" xmlns="http://www.w3.org/2000/svg"><path d="M144.384 147.571H16.036a15.892 15.892 0 01-11.221-4.636 15.806 15.806 0 01-4.648-11.192V73.096a6.256 6.256 0 011.962-4.55l68.011-64.3A14.659 14.659 0 0180.21.243c3.747 0 7.351 1.433 10.07 4.003l64.846 61.306a16.377 16.377 0 015.128 11.895v54.296a15.798 15.798 0 01-4.648 11.192 15.894 15.894 0 01-11.222 4.636z" fill="#3F3D56"/><path opacity=".1" d="M.167 74.059H158.92v63.955a9.548 9.548 0 01-2.807 6.758 9.597 9.597 0 01-6.776 2.799H9.749a9.597 9.597 0 01-6.776-2.799 9.547 9.547 0 01-2.806-6.758V74.059z" fill="#000"/><path d="M130.344 23.665H29.743c-4.822 0-8.732 3.899-8.732 8.709v100.335c0 4.809 3.91 8.708 8.732 8.708h100.601c4.822 0 8.731-3.899 8.731-8.708V32.374c0-4.81-3.909-8.709-8.731-8.709z" fill="#22A3D2"/><path opacity=".1" d="M139.075 76.704v64.713H21.011V76.704l59.032 28.456 59.032-28.456z" fill="#000"/><path d="M80.043 108.819L4.404 72.357a3.075 3.075 0 00-4.02 1.274A3.054 3.054 0 000 75.113v62.734a9.54 9.54 0 002.807 6.758 9.61 9.61 0 006.776 2.8h140.921a9.606 9.606 0 006.776-2.8 9.55 9.55 0 002.807-6.758v-61.66a3.727 3.727 0 00-1.755-3.164 3.751 3.751 0 00-3.62-.198l-74.668 35.994z" fill="#3F3D56"/><path d="M64.201 34.476H31.184v4.657H64.2v-4.657zM126.569 51.44H28.515V54.1h98.054V51.44zM126.569 60.421H28.515v2.661h98.054v-2.661zM126.569 69.402H28.515v2.661h98.054v-2.66z" fill="#F2F2F2"/><path d="M25.847 39.182c7.552 0 13.675-6.117 13.675-13.663 0-7.545-6.123-13.662-13.675-13.662-7.552 0-13.674 6.117-13.674 13.662 0 7.546 6.122 13.663 13.674 13.663z" fill="#fff"/><path d="M25.847 9.528c-3.232 0-6.391.956-9.079 2.747a16.308 16.308 0 00-6.019 7.315 16.26 16.26 0 00-.93 9.417 16.286 16.286 0 004.473 8.345 16.356 16.356 0 008.367 4.461c3.17.629 6.456.306 9.442-.928a16.334 16.334 0 007.334-6.003 16.269 16.269 0 002.755-9.055 16.325 16.325 0 00-4.801-11.511 16.412 16.412 0 00-11.542-4.788zm-3.355 24.99l-8.375-8.354 2.35-2.343L22.5 29.84l12.736-12.702 2.35 2.343-15.093 15.037z" fill="#57B894"/></svg>