<svg width="41" height="24" fill="none" xmlns="http://www.w3.org/2000/svg"><path fill-rule="evenodd" clip-rule="evenodd" d="M20.12 23.08h2.4s.72-.12 1.08-.48c.36-.36.36-1.08.36-1.08s0-3.12 1.44-3.6 3.36 3.12 5.28 4.44c1.44 1.08 2.52.84 2.52.84l5.28-.12s2.76-.12 1.44-2.4c-.12-.12-.72-1.56-3.96-4.56C32.6 13 33.08 13.6 37.04 8.2c2.4-3.24 3.36-5.16 3.12-6.12-.24-.84-2.04-.6-2.04-.6h-6s-.48-.12-.72.12c-.36.24-.48.6-.48.6s-.96 2.52-2.16 4.68c-2.64 4.44-3.72 4.68-4.08 4.44-.96-.6-.72-2.64-.72-3.96 0-4.32.72-6.12-1.32-6.6-.6-.12-1.08-.24-2.76-.24-2.16 0-3.96 0-4.92.48-.72.36-1.2 1.08-.84 1.08s1.32.24 1.8.84c.48 1.08.48 2.88.48 2.88s.36 5.16-.84 5.76c-.84.48-1.92-.48-4.32-4.56-1.2-2.04-2.16-4.44-2.16-4.44s-.12-.48-.48-.72-.96-.36-.96-.36H2s-.84 0-1.2.36c-.24.36 0 .96 0 .96s4.44 10.32 9.48 15.6c4.68 5.04 9.84 4.68 9.84 4.68z" fill="#fff"/></svg>